<svg width="113" height="112" viewBox="0 0 113 112" fill="none" xmlns="http://www.w3.org/2000/svg">
<path fill-rule="evenodd" clip-rule="evenodd" d="M109.701 34.171C109.433 28.4774 108.539 24.5701 107.198 21.154C105.836 17.6262 104.004 14.6343 101.01 11.6647C98.0383 8.69511 95.0445 6.86424 91.5145 5.47992C88.0963 4.16259 84.2088 3.24716 78.4893 3.00155C72.7922 2.75595 70.9602 2.68896 56.3934 2.68896C41.8267 2.68896 39.9947 2.75595 34.2752 3.02388C28.5781 3.29181 24.6683 4.18492 21.25 5.50225C17.7424 6.86424 14.7486 8.69511 11.7771 11.687C8.78335 14.6566 6.95133 17.6485 5.58849 21.1763C4.27033 24.5924 3.35432 28.4774 3.08622 34.1933C2.84046 39.9092 2.77344 41.7177 2.77344 56.2754C2.77344 70.833 2.84046 72.6639 3.08622 78.3798C3.35432 84.0957 4.24799 87.9807 5.58849 91.3968C6.95133 94.9246 8.78335 97.9165 11.7771 100.886C14.7486 103.856 17.7424 105.687 21.2723 107.071C24.6906 108.388 28.5781 109.304 34.2975 109.572C40.017 109.795 41.8267 109.862 56.3934 109.862C70.9602 109.862 72.7699 109.795 78.4893 109.549C84.1865 109.281 88.0963 108.388 91.5145 107.049C95.0445 105.687 98.0383 103.856 101.01 100.864C103.981 97.8942 105.813 94.9023 107.198 91.3745C108.517 87.9584 109.433 84.0733 109.701 78.3575C109.946 72.6639 110.013 70.833 110.013 56.2754C110.013 41.7177 109.946 39.9092 109.701 34.171ZM105.232 78.1788C105.009 82.8453 104.339 86.4178 103.043 89.7669C101.814 92.9374 100.25 95.3265 97.8596 97.7156C95.469 100.105 93.0784 101.668 89.9059 102.896C86.5547 104.191 82.98 104.883 78.3106 105.084C72.6582 105.329 70.7815 105.396 56.3934 105.396C42.0054 105.396 40.1287 105.329 34.4986 105.084C29.8292 104.86 26.2545 104.191 22.9033 102.896C19.7308 101.668 17.3402 100.105 14.9496 97.7156C12.5367 95.3265 10.9952 92.9374 9.74404 89.7669C8.44822 86.4178 7.75563 82.8453 7.55455 78.1788C7.3088 72.5299 7.24177 70.6544 7.24177 56.2754C7.24177 41.8964 7.3088 40.0208 7.55455 34.3719C7.77797 29.7055 8.44822 26.133 9.74404 22.7839C10.9728 19.591 12.5367 17.2243 14.9273 14.8352C17.3179 12.4462 19.7084 10.9056 22.8809 9.6552C26.2322 8.36019 29.8069 7.66804 34.4763 7.46709C40.1287 7.22148 42.0054 7.1545 56.3934 7.1545C70.7815 7.1545 72.6582 7.22148 78.2883 7.46709C82.9577 7.69036 86.5323 8.36019 89.8836 9.6552C93.0784 10.8832 95.4467 12.4462 97.8372 14.8352C100.228 17.2243 101.792 19.6133 103.02 22.7839C104.316 26.133 105.009 29.7055 105.21 34.3719C105.5 40.0208 105.545 41.8964 105.545 56.2754C105.545 70.6544 105.5 72.5299 105.232 78.1788ZM58.6276 31.7149H54.1593V54.0426H31.8176V58.5082H54.1593V80.8358H58.6276V58.5082H80.9693V54.0426H58.6276V31.7149Z" fill="#262626" stroke="#262626" stroke-width="4"/>
</svg>
