<svg width="111" height="97" viewBox="0 0 111 97" fill="none" xmlns="http://www.w3.org/2000/svg">
<path d="M55.7775 94.8723C53.7708 94.8723 51.8554 94.2365 50.2364 93.0329C39.2454 84.8807 12.9765 64.6022 6.38642 52.3171C-2.23308 36.2624 2.94318 15.6433 17.9019 6.35562C22.7361 3.35813 28.2088 1.76855 33.7727 1.76855C42.0958 1.76855 49.9171 5.17479 55.7775 11.2379C61.6378 5.17479 69.4592 1.76855 77.7823 1.76855C83.3462 1.76855 88.8189 3.35813 93.6531 6.35562C108.612 15.6433 113.788 36.2624 105.191 52.3171C98.6013 64.6022 72.3324 84.8807 61.3414 93.0329C59.6996 94.2365 57.7841 94.8723 55.7775 94.8723ZM33.7727 8.58103C29.4858 8.58103 25.2672 9.80727 21.5275 12.1235C9.55602 19.5718 5.4515 36.1488 12.4064 49.0925C18.5176 60.4921 46.0179 81.429 54.2953 87.5603C55.1618 88.1961 56.3704 88.1961 57.2369 87.5603C65.5143 81.4063 93.0146 60.4693 99.1258 49.0925C106.081 36.1488 101.976 19.5491 90.0046 12.1235C86.2878 9.80727 82.0692 8.58103 77.7823 8.58103C70.2801 8.58103 63.2568 12.2143 58.5138 18.5272L55.7775 22.206L53.0411 18.5272C48.2981 12.2143 41.2977 8.58103 33.7727 8.58103Z" fill="black" stroke="black" stroke-width="3"/>
</svg>
