<svg width="88" height="55" viewBox="0 0 88 55" fill="none" xmlns="http://www.w3.org/2000/svg">
<path fill-rule="evenodd" clip-rule="evenodd" d="M82.4133 0.123291H77.312C74.4946 0.123291 72.2107 2.40724 72.2107 5.22463V49.4362C72.2107 52.2536 74.4946 54.5375 77.312 54.5375H82.4133C85.2307 54.5375 87.5146 52.2536 87.5146 49.4362V5.22463C87.5146 2.40724 85.2307 0.123291 82.4133 0.123291ZM53.5045 12.0266H58.6058C61.4232 12.0266 63.7072 14.3105 63.7072 17.1279V49.4363C63.7072 52.2537 61.4232 54.5377 58.6058 54.5377H53.5045C50.6871 54.5377 48.4032 52.2537 48.4032 49.4363V17.1279C48.4032 14.3105 50.6871 12.0266 53.5045 12.0266ZM34.8022 23.9294H29.7008C26.8834 23.9294 24.5995 26.2133 24.5995 29.0307V49.436C24.5995 52.2534 26.8834 54.5373 29.7008 54.5373H34.8022C37.6196 54.5373 39.9036 52.2534 39.9036 49.436V29.0307C39.9036 26.2133 37.6196 23.9294 34.8022 23.9294ZM10.9946 34.132H5.89331C3.07593 34.132 0.791992 36.416 0.791992 39.2333V49.436C0.791992 52.2534 3.07593 54.5373 5.89331 54.5373H10.9946C13.812 54.5373 16.0959 52.2534 16.0959 49.436V39.2333C16.0959 36.416 13.812 34.132 10.9946 34.132Z" fill="black"/>
</svg>
