<svg width="147" height="58" viewBox="0 0 147 58" fill="none" xmlns="http://www.w3.org/2000/svg">
<path d="M20.1624 57.1452C33.8747 57.1452 42.0199 46.4219 42.0199 28.2633C42.0199 10.4411 33.3516 0.577148 20.4613 0.577148C8.72922 0.577148 0.43457 8.4608 0.43457 19.5203C0.43457 29.87 7.90723 37.4174 18.1821 37.4174C24.4965 37.4174 29.6153 34.503 32.156 29.3842H32.7912C32.6791 41.8636 28.1581 49.0747 20.2745 49.0747C15.6414 49.0747 11.9425 46.5714 10.7842 42.5361H1.18184C2.75109 51.3539 10.2985 57.1452 20.1624 57.1452ZM20.4986 29.7952C14.2216 29.7952 9.88748 25.4611 9.88748 19.2214C9.88748 13.2059 14.4458 8.61026 20.536 8.61026C26.6262 8.61026 31.1845 13.2807 31.1845 19.4082C31.1845 25.4237 26.7383 29.7952 20.4986 29.7952Z" fill="black"/>
<path d="M58.0948 56.6221C61.6443 56.6221 64.0729 54.0814 64.0729 50.7187C64.0729 47.3186 61.6443 44.8153 58.0948 44.8153C54.5826 44.8153 52.1166 47.3186 52.1166 50.7187C52.1166 54.0814 54.5826 56.6221 58.0948 56.6221ZM58.0948 29.3469C61.6443 29.3469 64.0729 26.8435 64.0729 23.4808C64.0729 20.0808 61.6443 17.5774 58.0948 17.5774C54.5826 17.5774 52.1166 20.0808 52.1166 23.4808C52.1166 26.8435 54.5826 29.3469 58.0948 29.3469Z" fill="black"/>
<path d="M99.3525 55.8375H108.581V45.5625H115.867V37.4174H108.581V1.92223H94.981C87.6578 13.0565 79.9983 25.349 73.0114 37.5294V45.5625H99.3525V55.8375ZM81.9412 37.1184C87.2094 28.0392 93.4491 18.1379 98.9789 9.76852H99.502V37.6415H81.9412V37.1184Z" fill="black"/>
<path d="M136.724 55.8375H146.364V1.92223H136.762L122.676 11.7861V21.0522L136.089 11.6367H136.724V55.8375Z" fill="black"/>
</svg>
