<svg width="113" height="113" viewBox="0 0 113 113" fill="none" xmlns="http://www.w3.org/2000/svg">
<path fill-rule="evenodd" clip-rule="evenodd" d="M110.007 106.32L85.9302 82.2586C93.5202 73.7943 98.1697 62.6676 98.1697 50.4106C98.1697 24.0633 76.782 2.68896 50.4181 2.68896C24.0542 2.68896 2.6665 24.0633 2.6665 50.4106C2.6665 76.758 24.0542 98.1323 50.4181 98.1323C62.733 98.1323 73.8918 93.4355 82.3614 85.8L106.438 109.862L110.007 106.32ZM7.69299 50.4106C7.69299 26.8763 26.869 7.7123 50.4181 7.7123C73.9672 7.7123 93.1432 26.8763 93.1432 50.4106C93.1432 73.945 73.9672 93.109 50.4181 93.109C26.869 93.109 7.69299 73.945 7.69299 50.4106Z" fill="#262626" stroke="#262626" stroke-width="4"/>
</svg>
