<svg width="79" height="57" viewBox="0 0 79 57" fill="none" xmlns="http://www.w3.org/2000/svg">
<path fill-rule="evenodd" clip-rule="evenodd" d="M39.1337 12.0635C50.4828 12.064 61.3979 16.4211 69.6231 24.2343C70.2425 24.8375 71.2325 24.8299 71.8425 24.2172L77.7631 18.247C78.072 17.9363 78.2442 17.5154 78.2417 17.0774C78.2391 16.6395 78.062 16.2206 77.7495 15.9135C56.1611 -4.75828 22.1029 -4.75828 0.514561 15.9135C0.201839 16.2204 0.0244037 16.6391 0.0215201 17.0771C0.0186364 17.515 0.190542 17.936 0.499196 18.247L6.42157 24.2172C7.03119 24.8308 8.02196 24.8384 8.64096 24.2343C16.8672 16.4206 27.7835 12.0635 39.1337 12.0635ZM39.1335 31.4871C45.3691 31.4867 51.3822 33.8025 56.0044 37.9844C56.6295 38.578 57.6143 38.5651 58.2238 37.9555L64.1376 31.9852C64.449 31.6721 64.6218 31.2472 64.6173 30.8058C64.6129 30.3643 64.4314 29.9431 64.1137 29.6363C50.0383 16.5544 28.2407 16.5544 14.1653 29.6363C13.8474 29.9431 13.666 30.3645 13.6618 30.8061C13.6576 31.2477 13.831 31.6725 14.1431 31.9852L20.0553 37.9555C20.6647 38.5651 21.6495 38.578 22.2747 37.9844C26.8938 33.8053 32.9021 31.4897 39.1335 31.4871ZM50.9806 44.556C50.9897 44.9987 50.8155 45.4255 50.4992 45.7357L40.2695 56.0506C39.9697 56.3537 39.5608 56.5243 39.1342 56.5243C38.7076 56.5243 38.2988 56.3537 37.9989 56.0506L27.7675 45.7357C27.4515 45.4253 27.2776 44.9984 27.287 44.5557C27.2964 44.113 27.4881 43.6938 27.8171 43.397C34.3501 37.876 43.9184 37.876 50.4514 43.397C50.7801 43.694 50.9716 44.1134 50.9806 44.556Z" fill="black"/>
</svg>
