<svg width="108" height="113" viewBox="0 0 108 113" fill="none" xmlns="http://www.w3.org/2000/svg">
<g opacity="0.5">
<path fill-rule="evenodd" clip-rule="evenodd" d="M54.0641 3.60355C54.2058 3.60511 54.3401 3.66673 54.4338 3.77308L65.5191 16.3621H88.5932C97.1537 16.3621 104.093 23.3017 104.093 31.8621V93.7242C104.093 102.285 97.1536 109.224 88.5932 109.224H19.0132C10.4528 109.224 3.51318 102.285 3.51318 93.7242V31.8621C3.51318 23.3017 10.4528 16.3621 19.0132 16.3621H42.0939L53.6907 3.76487C53.7867 3.66061 53.9224 3.60198 54.0641 3.60355ZM54.0503 4.85072L42.6811 17.2008C42.5864 17.3036 42.453 17.3621 42.3132 17.3621H19.0132C11.005 17.3621 4.51318 23.854 4.51318 31.8621V93.7242C4.51318 101.672 10.908 108.127 18.8332 108.223V103.207C18.8332 91.8854 28.0114 82.7072 39.3332 82.7072H65.7198C77.0417 82.7072 86.2198 91.8854 86.2198 103.207V108.224H88.5932C96.6014 108.224 103.093 101.732 103.093 93.7242V31.8621C103.093 23.854 96.6014 17.3621 88.5932 17.3621H65.2932C65.1496 17.3621 65.0129 17.3004 64.918 17.1926L54.0503 4.85072ZM85.2198 108.224V103.207C85.2198 92.4377 76.4894 83.7072 65.7198 83.7072H39.3332C28.5637 83.7072 19.8332 92.4377 19.8332 103.207V108.224H85.2198ZM53.5475 72.0001C64.2771 72.0001 72.9741 63.3076 72.9741 52.5863C72.9741 41.8649 64.2771 33.1725 53.5475 33.1725C42.8178 33.1725 34.1208 41.8649 34.1208 52.5863C34.1208 63.3076 42.8178 72.0001 53.5475 72.0001ZM53.5475 73.0001C64.8288 73.0001 73.9741 63.8605 73.9741 52.5863C73.9741 41.3121 64.8288 32.1725 53.5475 32.1725C42.2661 32.1725 33.1208 41.3121 33.1208 52.5863C33.1208 63.8605 42.2661 73.0001 53.5475 73.0001Z" fill="#262626"/>
<path d="M54.4338 3.77308L52.1822 5.75564L52.1823 5.75567L54.4338 3.77308ZM54.0641 3.60355L54.0309 6.60336L54.0641 3.60355ZM65.5191 16.3621L63.2676 18.3447L64.1635 19.3621H65.5191V16.3621ZM42.0939 16.3621V19.3621H43.4098L44.301 18.394L42.0939 16.3621ZM53.6907 3.76487L51.4835 1.733L51.4835 1.73301L53.6907 3.76487ZM42.6811 17.2008L40.4739 15.1689L40.4739 15.1689L42.6811 17.2008ZM54.0503 4.85072L56.3018 2.86814L54.0998 0.367471L51.8431 2.81886L54.0503 4.85072ZM18.8332 108.223L18.7967 111.223L21.8332 111.26V108.223H18.8332ZM86.2198 108.224H83.2198V111.224H86.2198V108.224ZM64.918 17.1926L67.1695 15.21L67.1695 15.21L64.918 17.1926ZM85.2198 108.224V111.224H88.2198V108.224H85.2198ZM19.8332 108.224H16.8332V111.224H19.8332V108.224ZM56.6853 1.79052C56.0298 1.04602 55.0891 0.614691 54.0972 0.603729L54.0309 6.60336C53.3224 6.59553 52.6505 6.28745 52.1822 5.75564L56.6853 1.79052ZM67.7707 14.3795L56.6853 1.7905L52.1823 5.75567L63.2676 18.3447L67.7707 14.3795ZM88.5932 13.3621H65.5191V19.3621H88.5932V13.3621ZM107.093 31.8621C107.093 21.6449 98.8105 13.3621 88.5932 13.3621V19.3621C95.4968 19.3621 101.093 24.9586 101.093 31.8621H107.093ZM107.093 93.7242V31.8621H101.093V93.7242H107.093ZM88.5932 112.224C98.8105 112.224 107.093 103.941 107.093 93.7242H101.093C101.093 100.628 95.4968 106.224 88.5932 106.224V112.224ZM19.0132 112.224H88.5932V106.224H19.0132V112.224ZM0.513184 93.7242C0.513184 103.941 8.79592 112.224 19.0132 112.224V106.224C12.1096 106.224 6.51318 100.628 6.51318 93.7242H0.513184ZM0.513184 31.8621V93.7242H6.51318V31.8621H0.513184ZM19.0132 13.3621C8.7959 13.3621 0.513184 21.6449 0.513184 31.8621H6.51318C6.51318 24.9586 12.1096 19.3621 19.0132 19.3621V13.3621ZM42.0939 13.3621H19.0132V19.3621H42.0939V13.3621ZM51.4835 1.73301L39.8867 14.3303L44.301 18.394L55.8978 5.79674L51.4835 1.73301ZM54.0972 0.603729C53.1053 0.592767 52.1554 1.00322 51.4835 1.733L55.8978 5.79675C55.418 6.31801 54.7394 6.61119 54.0309 6.60336L54.0972 0.603729ZM44.8882 19.2326L56.2574 6.88259L51.8431 2.81886L40.4739 15.1689L44.8882 19.2326ZM42.3132 20.3621C43.2917 20.3621 44.2255 19.9525 44.8882 19.2326L40.4739 15.1689C40.9473 14.6547 41.6143 14.3621 42.3132 14.3621V20.3621ZM19.0132 20.3621H42.3132V14.3621H19.0132V20.3621ZM7.51318 31.8621C7.51318 25.5109 12.6619 20.3621 19.0132 20.3621V14.3621C9.34819 14.3621 1.51318 22.1972 1.51318 31.8621H7.51318ZM7.51318 93.7242V31.8621H1.51318V93.7242H7.51318ZM18.8697 105.223C12.585 105.147 7.51318 100.028 7.51318 93.7242H1.51318C1.51318 103.317 9.23104 111.107 18.7967 111.223L18.8697 105.223ZM21.8332 108.223V103.207H15.8332V108.223H21.8332ZM21.8332 103.207C21.8332 93.5422 29.6682 85.7072 39.3332 85.7072V79.7072C26.3545 79.7072 15.8332 90.2285 15.8332 103.207H21.8332ZM39.3332 85.7072H65.7198V79.7072H39.3332V85.7072ZM65.7198 85.7072C75.3848 85.7072 83.2198 93.5422 83.2198 103.207H89.2198C89.2198 90.2285 78.6985 79.7072 65.7198 79.7072V85.7072ZM83.2198 103.207V108.224H89.2198V103.207H83.2198ZM88.5932 105.224H86.2198V111.224H88.5932V105.224ZM100.093 93.7242C100.093 100.075 94.9445 105.224 88.5932 105.224V111.224C98.2582 111.224 106.093 103.389 106.093 93.7242H100.093ZM100.093 31.8621V93.7242H106.093V31.8621H100.093ZM88.5932 20.3621C94.9445 20.3621 100.093 25.5109 100.093 31.8621H106.093C106.093 22.1972 98.2582 14.3621 88.5932 14.3621V20.3621ZM65.2932 20.3621H88.5932V14.3621H65.2932V20.3621ZM62.6664 19.1751C63.3309 19.9297 64.2878 20.3621 65.2932 20.3621V14.3621C66.0114 14.3621 66.6949 14.671 67.1695 15.21L62.6664 19.1751ZM51.7988 6.83331L62.6664 19.1752L67.1695 15.21L56.3018 2.86814L51.7988 6.83331ZM88.2198 108.224V103.207H82.2198V108.224H88.2198ZM88.2198 103.207C88.2198 90.7808 78.1462 80.7072 65.7198 80.7072V86.7072C74.8325 86.7072 82.2198 94.0945 82.2198 103.207H88.2198ZM65.7198 80.7072H39.3332V86.7072H65.7198V80.7072ZM39.3332 80.7072C26.9068 80.7072 16.8332 90.7808 16.8332 103.207H22.8332C22.8332 94.0945 30.2205 86.7072 39.3332 86.7072V80.7072ZM16.8332 103.207V108.224H22.8332V103.207H16.8332ZM85.2198 105.224H19.8332V111.224H85.2198V105.224ZM69.9741 52.5863C69.9741 61.649 62.622 69.0001 53.5475 69.0001V75.0001C65.9322 75.0001 75.9741 64.9662 75.9741 52.5863H69.9741ZM53.5475 36.1725C62.622 36.1725 69.9741 43.5235 69.9741 52.5863H75.9741C75.9741 40.2063 65.9322 30.1725 53.5475 30.1725V36.1725ZM37.1208 52.5863C37.1208 43.5235 44.4729 36.1725 53.5475 36.1725V30.1725C41.1627 30.1725 31.1208 40.2063 31.1208 52.5863H37.1208ZM53.5475 69.0001C44.4729 69.0001 37.1208 61.649 37.1208 52.5863H31.1208C31.1208 64.9662 41.1627 75.0001 53.5475 75.0001V69.0001ZM70.9741 52.5863C70.9741 62.2019 63.1737 70.0001 53.5475 70.0001V76.0001C66.4839 76.0001 76.9741 65.5191 76.9741 52.5863H70.9741ZM53.5475 35.1725C63.1737 35.1725 70.9741 42.9707 70.9741 52.5863H76.9741C76.9741 39.6534 66.4839 29.1725 53.5475 29.1725V35.1725ZM36.1208 52.5863C36.1208 42.9707 43.9212 35.1725 53.5475 35.1725V29.1725C40.6111 29.1725 30.1208 39.6534 30.1208 52.5863H36.1208ZM53.5475 70.0001C43.9212 70.0001 36.1208 62.2019 36.1208 52.5863H30.1208C30.1208 65.5191 40.6111 76.0001 53.5475 76.0001V70.0001Z" fill="black"/>
</g>
</svg>
