<svg width="125" height="108" viewBox="0 0 125 108" fill="none" xmlns="http://www.w3.org/2000/svg">
<path d="M62.5403 107.862C60.2302 107.862 58.0251 107.13 56.1613 105.744C43.5084 96.3603 13.2676 73.0176 5.68109 58.876C-4.2417 40.3952 1.71722 16.6603 18.9377 5.96919C24.5029 2.51874 30.8031 0.688965 37.2083 0.688965C46.7898 0.688965 55.7938 4.60992 62.5403 11.5892C69.2867 4.60992 78.2907 0.688965 87.8723 0.688965C94.2775 0.688965 100.578 2.51874 106.143 5.96919C123.363 16.6603 129.322 40.3952 119.426 58.876C111.839 73.0176 81.5983 96.3603 68.9455 105.744C67.0554 107.13 64.8503 107.862 62.5403 107.862ZM37.2083 8.53088C32.2731 8.53088 27.4167 9.94242 23.1116 12.6087C9.32995 21.1825 4.6048 40.2645 12.6113 55.1641C19.6465 68.2863 51.3049 92.3871 60.834 99.4448C61.8315 100.177 63.2228 100.177 64.2203 99.4448C73.7493 92.361 105.408 68.2601 112.443 55.1641C120.449 40.2645 115.724 21.1564 101.943 12.6087C97.6638 9.94242 92.8074 8.53088 87.8723 8.53088C79.2358 8.53088 71.1505 12.7132 65.6904 19.9801L62.5403 24.2147L59.3902 19.9801C53.93 12.7132 45.871 8.53088 37.2083 8.53088Z" fill="#010101"/>
</svg>
