<svg width="124" height="109" viewBox="0 0 124 109" fill="none" xmlns="http://www.w3.org/2000/svg">
<path d="M64.3542 103.093C62.1564 103.093 60.0586 102.397 58.2854 101.078C46.2476 92.1441 17.4769 69.9222 10.2592 56.4597C0.818802 38.8663 6.48804 16.2711 22.8714 6.09333C28.166 2.80857 34.1599 1.06665 40.2537 1.06665C49.3694 1.06665 57.9357 4.79933 64.3542 11.4435C70.7727 4.79933 79.339 1.06665 88.4547 1.06665C94.5485 1.06665 100.542 2.80857 105.837 6.09333C122.22 16.2711 127.89 38.8663 118.474 56.4597C111.257 69.9222 82.4858 92.1441 70.448 101.078C68.6498 102.397 66.552 103.093 64.3542 103.093ZM40.2537 8.53202C35.5585 8.53202 30.9382 9.87578 26.8423 12.414C13.7307 20.5761 9.23524 38.7419 16.8525 52.9261C23.5457 65.4181 53.6651 88.3617 62.7308 95.0805C63.6799 95.7773 65.0035 95.7773 65.9526 95.0805C75.0183 88.3368 105.138 65.3932 111.831 52.9261C119.448 38.7419 114.953 20.5513 101.841 12.414C97.7702 9.87578 93.1499 8.53202 88.4547 8.53202C80.238 8.53202 72.5459 12.5135 67.3511 19.4314L64.3542 23.4627L61.3572 19.4314C56.1625 12.5135 48.4953 8.53202 40.2537 8.53202Z" fill="black" stroke="black"/>
</svg>
