<svg width="113" height="108" viewBox="0 0 113 108" fill="none" xmlns="http://www.w3.org/2000/svg">
<path d="M7.48177 54.7868L56.1403 5.08074L104.799 54.7868C106.292 56.3125 107.139 58.381 107.139 60.5718V99.2627C107.139 100.945 105.816 102.141 104.427 102.141H76.4781C75.1394 102.141 73.8673 100.997 73.8673 99.3667V75.965C73.8673 66.128 66.0269 57.964 56.1403 57.964C46.2537 57.964 38.4133 66.128 38.4133 75.965V99.3667C38.4133 100.997 37.1412 102.141 35.8026 102.141H7.85415C6.46463 102.141 5.1416 100.945 5.1416 99.2627V60.5718C5.1416 58.381 5.98826 56.3125 7.48177 54.7868Z" stroke="black" stroke-width="10"/>
</svg>
